<?xml version="1.0" standalone="no"?>
<!DOCTYPE svg PUBLIC "-//W3C//DTD SVG 20010904//EN"
 "http://www.w3.org/TR/2001/REC-SVG-20010904/DTD/svg10.dtd">
<svg version="1.0" xmlns="http://www.w3.org/2000/svg"
 width="1392.000000pt" height="1392.000000pt" viewBox="0 0 1392.000000 1392.000000"
 preserveAspectRatio="xMidYMid meet">
<metadata>
Created by potrace 1.14, written by Peter Selinger 2001-2017
</metadata>
<g transform="translate(0.000000,1392.000000) scale(0.100000,-0.100000)"
fill="#000000" stroke="none">
<path d="M8396 11803 c-2 -3 -68 -15 -83 -16 -7 0 -13 -4 -13 -8 0 -5 -20 -15
-50 -23 -3 0 -22 -17 -44 -36 -50 -45 -80 -99 -106 -185 -12 -39 -25 -79 -29
-90 -8 -18 -74 -223 -76 -235 -1 -5 -10 -32 -70 -220 -20 -63 -38 -119 -39
-125 -2 -5 -6 -17 -9 -25 -3 -8 -11 -33 -17 -55 -6 -22 -14 -47 -17 -55 -3 -8
-7 -19 -8 -25 -2 -5 -25 -80 -53 -165 -59 -182 -133 -411 -136 -425 -2 -5 -6
-17 -9 -25 -7 -18 -41 -123 -42 -130 -1 -3 -9 -31 -18 -62 -10 -32 -16 -59
-15 -61 2 -2 -3 -11 -10 -20 -8 -9 -11 -21 -7 -27 3 -5 1 -10 -6 -10 -7 0 -10
-2 -7 -5 3 -3 -8 -45 -24 -93 -16 -48 -31 -94 -33 -102 -2 -8 -36 -114 -75
-235 -40 -121 -78 -240 -85 -265 -32 -112 -90 -285 -97 -288 -5 -2 -6 -7 -3
-12 3 -5 1 -19 -4 -32 -6 -13 -36 -104 -67 -203 -31 -99 -74 -234 -96 -300
-42 -128 -49 -153 -50 -172 -1 -7 -5 -13 -10 -13 -5 0 -7 -4 -4 -8 3 -5 -1
-20 -9 -35 -7 -14 -11 -28 -8 -31 3 -3 0 -12 -7 -21 -7 -8 -10 -15 -6 -15 4 0
0 -13 -8 -29 -9 -16 -12 -31 -9 -35 4 -3 1 -6 -6 -6 -7 0 -10 -4 -6 -9 3 -5
-1 -27 -9 -48 -23 -60 -201 -622 -204 -643 -1 -3 -8 -21 -16 -40 -8 -19 -14
-37 -14 -40 -1 -3 -3 -12 -6 -20 -2 -8 -30 -96 -61 -195 -31 -99 -66 -207 -77
-240 -11 -33 -21 -64 -22 -70 -1 -5 -29 -91 -61 -190 -32 -99 -60 -186 -62
-192 -6 -25 -10 -38 -16 -53 -13 -37 -19 -57 -23 -80 -3 -13 -9 -29 -13 -35
-5 -5 -11 -23 -15 -40 -4 -16 -27 -91 -51 -165 -131 -406 -155 -484 -157 -507
-1 -7 -5 -13 -9 -13 -4 0 -10 -17 -15 -37 -4 -21 -8 -40 -9 -43 0 -3 -13 -43
-29 -90 -30 -92 -32 -100 -36 -115 -1 -5 -8 -24 -15 -42 -7 -17 -11 -34 -7
-37 3 -3 -1 -6 -8 -6 -7 0 -11 -3 -8 -6 4 -3 0 -24 -7 -47 -8 -23 -40 -125
-73 -227 -89 -276 -114 -354 -117 -365 -1 -5 -5 -17 -8 -25 -12 -32 -127 -395
-127 -402 0 -4 -5 -19 -12 -35 -6 -15 -12 -33 -14 -40 -1 -6 -29 -96 -63 -200
-33 -103 -61 -192 -62 -198 -1 -5 -8 -23 -15 -40 -7 -16 -13 -34 -14 -40 -3
-13 -6 -21 -21 -70 -7 -22 -14 -44 -15 -50 -1 -5 -10 -32 -19 -60 -10 -27 -19
-57 -20 -65 -2 -8 -4 -16 -5 -17 -2 -2 -3 -6 -4 -10 -3 -11 -26 -85 -33 -103
-7 -16 -12 -33 -16 -52 -1 -7 -8 -26 -14 -43 -6 -16 -37 -111 -68 -210 -31
-99 -60 -191 -64 -205 -5 -14 -7 -55 -6 -91 4 -136 97 -253 230 -291 129 -37
255 7 348 121 9 12 17 23 17 25 0 2 7 20 15 40 8 20 15 38 15 41 0 3 9 29 19
57 21 58 81 244 86 268 2 8 22 69 44 135 23 66 41 128 41 138 0 9 5 17 12 17
6 0 9 3 5 6 -3 3 1 23 8 44 7 21 11 41 8 44 -4 3 -2 6 4 6 5 0 10 6 10 13 1 6
15 55 32 107 17 52 31 98 31 102 0 4 4 17 9 30 5 13 9 25 9 28 0 3 6 19 12 35
7 17 13 37 15 45 2 8 14 49 28 90 26 77 108 332 146 455 12 39 24 77 27 85 3
8 5 16 5 17 0 2 7 22 15 45 9 24 17 50 19 58 2 8 13 42 23 75 59 179 143 445
147 465 2 12 9 28 15 35 6 7 9 17 8 21 -2 5 2 23 9 39 26 66 64 191 64 207 0
10 5 20 10 23 5 4 7 11 4 16 -4 5 -1 9 6 9 7 0 10 3 7 6 -4 3 2 31 12 62 11
31 51 158 90 282 39 124 74 232 77 240 3 8 7 20 9 25 5 19 63 201 89 280 15
44 28 90 30 102 2 12 7 28 11 35 5 7 9 18 10 23 2 15 143 451 165 513 11 30
20 65 21 78 1 13 5 24 9 24 4 0 10 17 14 37 4 21 10 42 13 48 4 5 7 15 8 20 1
6 14 46 28 90 14 44 26 84 26 90 0 5 7 23 15 39 8 15 13 32 10 36 -3 5 -1 11
4 14 4 3 12 20 16 38 4 18 8 35 9 38 31 99 100 310 106 325 13 29 34 108 33
123 0 6 3 12 7 12 6 0 22 55 18 63 -1 1 4 12 11 25 7 13 14 31 16 40 2 9 15
53 29 97 14 44 26 83 26 87 1 4 7 23 16 43 8 19 12 35 9 35 -3 0 0 10 7 23 6
12 13 27 14 33 1 7 21 72 45 145 24 74 44 136 44 139 1 3 16 50 34 105 18 55
34 107 36 115 2 8 16 49 30 90 14 41 27 84 29 95 2 11 5 21 6 23 1 1 4 7 5 12
1 6 4 12 5 15 1 3 3 8 4 13 1 4 6 21 13 37 14 37 27 87 25 98 -1 4 2 7 8 7 6
0 9 3 8 8 -3 8 19 84 35 122 6 14 11 30 12 35 3 25 19 71 28 83 5 6 7 12 4 12
-3 0 14 59 39 132 24 72 42 134 39 136 -3 3 -1 10 4 16 9 11 117 341 111 341
-1 0 5 17 13 38 9 20 13 37 10 37 -3 0 -1 6 4 13 9 10 15 29 28 77 7 30 79
253 90 280 7 19 21 62 30 95 10 33 24 80 32 105 16 48 24 74 24 77 1 1 11 32
24 68 13 36 22 65 19 65 -2 0 2 14 11 30 9 17 13 30 10 30 -3 0 0 10 7 23 7
12 12 27 13 32 0 6 4 21 9 35 4 14 35 111 68 215 33 105 75 237 94 294 54 163
52 254 -4 346 -49 79 -147 146 -219 149 -17 0 -29 4 -27 7 3 6 -44 7 -50 2z"/>
<path d="M3990 10133 c-57 -7 -109 -28 -175 -71 -38 -24 -72 -44 -74 -43 -2 2
-7 -1 -10 -6 -10 -15 -105 -78 -113 -75 -5 1 -8 -2 -8 -6 0 -5 -16 -17 -35
-28 -19 -10 -35 -22 -35 -26 0 -5 -6 -8 -14 -8 -8 0 -16 -3 -18 -7 -3 -8 -114
-84 -133 -92 -5 -2 -33 -21 -62 -43 -29 -21 -55 -38 -58 -38 -3 0 -30 -18 -60
-40 -30 -22 -55 -38 -55 -35 0 4 -7 0 -15 -8 -8 -8 -31 -25 -52 -38 -21 -13
-42 -27 -48 -32 -32 -25 -187 -127 -195 -127 -6 0 -10 -4 -10 -8 0 -5 -12 -15
-27 -23 -28 -14 -43 -24 -68 -46 -7 -7 -16 -13 -20 -13 -9 0 -98 -61 -106 -73
-3 -4 -13 -9 -22 -11 -9 -1 -25 -10 -34 -19 -23 -22 -423 -287 -433 -287 -5 0
-10 -4 -12 -8 -1 -5 -30 -26 -63 -47 -33 -22 -61 -43 -63 -47 -2 -5 -8 -8 -13
-8 -5 0 -44 -25 -88 -55 -44 -30 -84 -55 -90 -55 -6 0 -11 -4 -11 -10 0 -5 -6
-10 -14 -10 -8 0 -16 -4 -18 -8 -1 -5 -30 -26 -63 -47 -33 -22 -62 -42 -65
-46 -3 -3 -10 -8 -15 -10 -16 -6 -248 -162 -263 -176 -7 -7 -18 -13 -23 -13
-5 0 -15 -5 -22 -10 -43 -36 -59 -48 -91 -65 -20 -11 -36 -23 -36 -27 0 -5 -4
-8 -9 -8 -6 0 -55 -31 -111 -70 -56 -38 -103 -70 -106 -70 -8 0 -69 -44 -72
-52 -2 -5 -8 -8 -13 -8 -9 0 -93 -56 -123 -82 -11 -10 -24 -18 -28 -18 -10 0
-61 -35 -92 -62 -11 -10 -23 -18 -28 -18 -10 0 -102 -63 -106 -72 -2 -5 -8 -8
-14 -8 -5 0 -15 -6 -22 -12 -7 -7 -28 -24 -46 -38 -90 -68 -198 -200 -262
-320 -84 -159 -118 -306 -114 -499 2 -75 6 -147 10 -161 3 -14 9 -38 11 -53
18 -98 91 -262 161 -362 36 -52 137 -159 193 -207 26 -22 882 -599 939 -633
36 -21 197 -130 202 -135 3 -4 24 -17 48 -30 23 -13 42 -27 42 -32 0 -4 5 -8
10 -8 6 0 35 -18 65 -40 30 -22 58 -40 63 -40 5 0 17 -9 27 -20 10 -11 24 -20
32 -20 7 0 13 -4 13 -10 0 -5 6 -10 13 -10 7 0 22 -8 33 -18 10 -9 57 -42 104
-72 47 -30 94 -63 104 -72 11 -10 24 -18 28 -18 5 0 33 -18 63 -40 30 -22 57
-40 61 -40 3 0 23 -13 44 -30 21 -16 42 -30 47 -30 5 0 18 -8 29 -17 24 -22
113 -83 120 -83 3 0 29 -18 58 -40 29 -22 56 -40 60 -40 4 0 30 -17 59 -37 29
-21 60 -42 69 -48 63 -38 584 -391 586 -397 2 -4 8 -8 14 -8 6 0 26 -11 44
-25 18 -14 37 -25 43 -25 6 0 11 -4 11 -8 0 -5 10 -14 23 -19 12 -6 31 -18 42
-27 67 -54 406 -268 439 -278 173 -49 362 58 402 229 19 81 10 154 -26 222
-30 57 -88 121 -109 121 -5 0 -11 4 -13 8 -4 10 -128 92 -138 92 -5 0 -10 3
-12 8 -4 10 -97 72 -107 72 -5 0 -11 3 -13 8 -5 11 -125 92 -137 92 -7 0 -14
7 -17 15 -4 8 -10 15 -15 15 -8 0 -98 58 -109 69 -3 4 -17 12 -32 20 -16 8
-28 18 -28 23 0 4 -5 8 -11 8 -6 0 -25 11 -43 25 -18 14 -38 25 -43 25 -6 0
-13 7 -17 15 -3 8 -12 15 -19 15 -8 0 -22 9 -32 20 -9 10 -20 18 -24 17 -3 -1
-22 10 -42 26 -20 15 -41 27 -47 27 -6 0 -12 4 -14 8 -1 5 -106 77 -233 161
-126 84 -238 159 -248 167 -9 8 -22 14 -27 14 -6 0 -13 7 -16 15 -4 8 -10 12
-15 9 -5 -3 -9 -1 -9 4 0 5 -8 12 -17 15 -10 4 -52 31 -95 61 -42 30 -79 52
-82 49 -3 -4 -6 -1 -6 5 0 7 -6 12 -14 12 -8 0 -16 4 -18 9 -3 8 -633 431
-643 431 -5 0 -36 24 -60 48 -8 6 -16 12 -20 12 -3 0 -42 25 -86 55 -43 31
-79 53 -79 50 0 -4 -6 0 -14 8 -8 8 -54 41 -103 73 -48 32 -89 62 -91 66 -2 4
-8 8 -14 8 -12 0 -102 61 -106 72 -2 4 -9 8 -15 8 -7 0 -36 18 -65 40 -29 22
-55 40 -58 40 -9 0 -99 63 -102 72 -2 4 -8 8 -13 8 -20 0 -251 165 -283 201
-71 83 -101 179 -93 293 9 134 76 231 224 327 37 24 77 52 87 61 11 10 25 18
32 18 7 0 14 3 16 8 4 10 65 52 76 52 5 0 17 9 26 19 10 11 33 27 52 36 19 9
34 20 34 25 0 6 5 10 11 10 11 0 95 55 117 77 8 7 17 11 22 8 4 -3 10 2 14 10
3 8 12 15 20 15 8 0 16 3 18 8 5 10 66 52 77 52 5 0 11 3 13 8 4 11 877 592
888 592 6 0 10 4 10 8 0 5 16 17 35 28 19 10 35 22 35 27 0 4 4 6 9 2 5 -3 12
-1 16 5 3 6 86 63 183 128 97 64 179 120 182 123 3 3 10 8 15 10 17 7 309 203
329 222 11 9 23 17 27 17 7 0 322 209 346 230 7 5 15 10 18 10 3 0 11 5 18 10
23 21 431 290 438 290 4 0 9 4 11 8 2 4 42 33 89 64 101 65 150 121 177 202
72 215 -107 444 -328 419z"/>
<path d="M9850 10128 c-25 -4 -51 -9 -57 -10 -7 -1 -13 -5 -13 -10 0 -4 -6 -8
-14 -8 -8 0 -37 -18 -64 -40 -36 -28 -60 -58 -83 -106 -29 -58 -33 -76 -32
-143 0 -80 9 -107 58 -183 26 -42 106 -98 724 -510 382 -255 699 -468 705
-474 7 -6 22 -15 34 -18 12 -4 22 -11 22 -14 0 -4 16 -16 35 -26 19 -11 35
-23 35 -28 0 -4 6 -8 14 -8 8 0 21 -6 28 -12 7 -7 81 -58 163 -112 83 -55 152
-103 153 -108 2 -4 8 -8 14 -8 12 0 102 -61 106 -72 2 -4 8 -8 13 -8 12 0 163
-101 167 -112 2 -4 8 -8 13 -8 7 0 182 -112 214 -138 6 -4 84 -57 175 -117 91
-60 167 -112 170 -115 3 -3 17 -11 32 -19 15 -8 36 -21 45 -30 10 -9 30 -22
45 -30 15 -8 36 -22 46 -31 10 -10 29 -23 42 -30 13 -7 29 -17 34 -22 6 -5 94
-63 196 -131 102 -67 187 -125 188 -129 2 -5 9 -8 16 -8 27 0 124 -106 156
-170 28 -56 33 -77 36 -153 2 -48 -1 -100 -7 -115 -6 -15 -13 -36 -15 -46 -4
-23 -45 -86 -82 -127 -28 -32 -225 -169 -242 -169 -5 0 -10 -3 -10 -7 0 -5
-21 -21 -48 -38 -26 -16 -51 -33 -57 -38 -5 -4 -71 -48 -145 -97 -74 -49 -139
-92 -145 -97 -5 -5 -35 -24 -65 -43 -30 -19 -57 -37 -60 -40 -3 -3 -30 -21
-60 -40 -30 -19 -57 -37 -60 -40 -3 -3 -36 -26 -75 -50 -38 -25 -76 -50 -83
-57 -6 -6 -21 -15 -32 -18 -11 -3 -20 -10 -20 -14 0 -5 -13 -14 -30 -21 -16
-7 -30 -16 -30 -21 0 -4 -9 -11 -20 -14 -11 -3 -26 -12 -32 -18 -7 -7 -65 -46
-128 -87 -63 -41 -121 -81 -128 -87 -7 -7 -17 -13 -22 -13 -5 0 -15 -6 -22
-13 -23 -21 -138 -97 -148 -97 -6 0 -10 -4 -10 -10 0 -5 -6 -10 -14 -10 -8 0
-16 -7 -20 -15 -3 -8 -12 -15 -20 -15 -8 0 -21 -6 -28 -12 -15 -15 -248 -171
-263 -177 -5 -2 -12 -7 -15 -11 -3 -4 -34 -25 -70 -48 -36 -23 -69 -45 -75
-49 -5 -5 -154 -104 -330 -221 -176 -117 -329 -219 -340 -228 -11 -8 -40 -27
-65 -42 -25 -15 -54 -34 -64 -44 -11 -10 -28 -20 -38 -24 -10 -3 -18 -10 -18
-15 0 -5 -4 -9 -9 -9 -15 0 -414 -270 -441 -298 -72 -76 -98 -142 -94 -243 5
-129 95 -249 215 -288 53 -17 188 -16 205 2 4 4 13 7 21 7 7 0 35 16 62 35 26
19 53 35 60 35 6 0 11 5 11 10 0 6 7 10 15 10 8 0 15 4 15 8 0 4 15 16 33 26
17 11 42 28 55 39 12 11 22 17 22 12 0 -5 10 1 23 12 29 26 116 83 127 83 4 0
10 4 12 8 2 4 50 39 108 77 58 39 107 72 110 75 3 3 17 11 33 19 15 8 27 18
27 23 0 4 6 8 14 8 8 0 21 6 28 13 20 20 258 177 268 177 5 0 10 4 12 8 2 5
44 36 93 68 50 32 92 62 93 67 2 4 8 7 14 7 6 0 28 14 49 31 21 17 39 28 39
24 0 -3 6 0 13 7 7 7 58 42 113 78 54 36 101 68 102 73 2 4 8 7 13 7 6 0 34
18 64 40 30 22 55 38 55 35 0 -3 12 6 27 20 15 14 32 25 36 25 5 0 23 11 41
25 18 14 36 25 41 25 4 0 13 6 19 13 6 7 76 56 156 107 80 52 147 97 150 100
3 3 133 90 290 194 157 104 287 193 288 198 2 4 8 8 14 8 6 0 39 20 75 45 35
25 68 45 73 45 6 0 10 4 10 8 0 5 16 17 35 28 19 10 35 22 35 26 0 5 4 8 9 8
5 0 53 29 106 65 54 36 101 65 105 65 5 0 10 4 12 8 2 4 55 43 120 85 182 121
259 187 346 295 17 23 32 45 32 50 0 5 7 15 15 22 8 7 25 33 37 59 13 25 27
49 33 53 5 4 7 8 3 8 -4 0 4 24 16 53 52 116 67 194 71 362 3 112 -8 222 -29
290 -28 94 -41 128 -73 193 -20 42 -41 82 -45 87 -5 6 -23 31 -41 56 -80 116
-169 194 -372 329 -77 51 -142 96 -145 100 -3 4 -15 10 -27 14 -13 4 -23 11
-23 14 0 4 -16 16 -35 26 -19 11 -35 23 -35 28 0 4 -5 8 -11 8 -6 0 -67 38
-136 85 -69 47 -130 85 -134 85 -5 0 -9 4 -9 8 0 5 -16 17 -35 28 -19 10 -35
22 -35 26 0 5 -5 8 -11 8 -10 0 -129 77 -139 90 -3 4 -10 9 -16 11 -19 7 -669
443 -672 451 -2 5 -8 8 -14 8 -11 0 -89 53 -125 84 -13 11 -23 16 -23 12 0 -6
-11 1 -45 32 -7 6 -18 12 -24 12 -6 0 -11 5 -11 10 0 6 -4 10 -9 10 -11 0
-285 182 -289 193 -2 4 -8 7 -14 7 -6 0 -27 14 -48 30 -21 17 -41 30 -46 30
-4 0 -31 18 -60 40 -29 22 -55 40 -58 40 -8 0 -101 64 -104 73 -2 4 -10 7 -18
7 -8 0 -14 3 -14 8 0 4 -20 18 -45 31 -25 13 -45 28 -45 32 0 5 -7 9 -15 9 -8
0 -15 5 -15 10 0 6 -7 10 -15 10 -8 0 -15 5 -15 12 0 6 -3 9 -6 5 -3 -3 -18 5
-32 19 -15 13 -31 24 -36 24 -5 0 -33 18 -62 40 -29 22 -58 40 -64 40 -5 0
-10 5 -10 10 0 6 -5 10 -10 10 -9 0 -65 35 -80 50 -14 14 -102 70 -110 70 -6
0 -10 5 -10 10 0 6 -6 10 -14 10 -8 0 -16 3 -18 8 -3 6 -64 49 -110 77 -9 5
-61 40 -115 76 -140 94 -206 115 -303 97z"/>
</g>
</svg>
